<svg xmlns="http://www.w3.org/2000/svg" width="36.861" height="36.861" viewBox="0 0 36.861 36.861">
  <path id="instagram" d="M30.7,9.766a2.133,2.133,0,1,1-.625-1.508A2.135,2.135,0,0,1,30.7,9.766Zm6.773,9.63v.028l-.122,7.732A10.672,10.672,0,0,1,26.8,37.706l-7.759.12h-.028L11.279,37.7A10.671,10.671,0,0,1,.728,27.155L.608,19.4v-.028L.73,11.636A10.671,10.671,0,0,1,11.279,1.085l7.759-.12h.028l7.732.122A10.671,10.671,0,0,1,37.349,11.636Zm-3.433,0-.12-7.706a7.255,7.255,0,0,0-7.172-7.172L19.039,4.4l-7.706.12a7.255,7.255,0,0,0-7.172,7.172L4.041,19.4l.12,7.706a7.255,7.255,0,0,0,7.172,7.172l7.706.12,7.706-.12A7.254,7.254,0,0,0,33.916,27.1Zm-5.534,0A9.464,9.464,0,1,1,25.731,12.7,9.464,9.464,0,0,1,28.5,19.4Zm-3.433,0A6.031,6.031,0,1,0,23.3,23.66,6.031,6.031,0,0,0,25.07,19.4Z" transform="translate(-0.608 -0.965)" fill="#fff"/>
</svg>
